<?xml version="1.0" encoding="iso-8859-1"?>
<!-- Uploaded to: SVG Repo, www.svgrepo.com, Generator: SVG Repo Mixer Tools -->
<svg height="800px" width="800px" version="1.1" id="Layer_1" xmlns="http://www.w3.org/2000/svg" xmlns:xlink="http://www.w3.org/1999/xlink" 
	 viewBox="0 0 512 512" xml:space="preserve">
<circle style="fill:#F95FF2;" cx="57.191" cy="264.171" r="49.021"/>
<circle style="fill:#AB15A4;" cx="454.809" cy="264.171" r="49.021"/>
<polygon style="fill:#E7C05C;" points="400.34,411.235 454.809,389.447 487.489,57.192 452.37,81.982 "/>
<polygon style="fill:#FFD875;" points="371.741,138.894 255.993,57.192 140.25,138.894 24.511,57.192 57.191,411.235 
	419.985,411.235 452.37,81.982 "/>
<circle style="fill:#D0A842;" cx="256" cy="264.171" r="81.702"/>
<path style="fill:#FEDFFD;" d="M454.809,389.447h-32.681v65.362h32.681c18.05,0,32.681-14.631,32.681-32.681
	C487.489,404.079,472.858,389.447,454.809,389.447z"/>
<path style="fill:#FFF3EE;" d="M454.809,422.128c0-18.05-14.631-32.681-32.681-32.681H57.191c-18.05,0-32.681,14.631-32.681,32.681
	c0,18.05,14.631,32.681,32.681,32.681h364.936C440.177,454.809,454.809,440.178,454.809,422.128z"/>
<path style="fill:#AB15A4;" d="M256,215.15v98.043c27.074,0,49.021-21.947,49.021-49.021S283.074,215.15,256,215.15z"/>
<path style="fill:#D23ACB;" d="M272.34,264.171c0-27.074-7.316-49.021-16.34-49.021c-27.074,0-49.021,21.947-49.021,49.021
	s21.947,49.021,49.021,49.021C265.024,313.192,272.34,291.245,272.34,264.171z"/>
<path d="M498.086,301.56C507.059,291.184,512,277.905,512,264.171c0-21.75-12.479-41.573-31.627-51.166l15.247-155.013
	c0.313-3.182-1.258-6.253-4.021-7.862s-6.209-1.456-8.822,0.387l-111.028,78.375l-111.03-78.374c-2.825-1.996-6.597-1.994-9.423,0
	l-111.038,78.375L29.222,50.518c-2.61-1.843-6.059-1.996-8.822-0.387s-4.335,4.68-4.021,7.862l15.247,155.013
	C12.479,222.599,0,242.421,0,264.171c0,13.734,4.941,27.013,13.914,37.389c7.46,8.627,17.298,14.787,28.17,17.765l6.191,62.943
	c-18.249,4.081-31.935,20.397-31.935,39.86c0,22.526,18.325,40.851,40.851,40.851h397.617c22.526,0,40.851-18.325,40.851-40.851
	c0-19.463-13.686-35.779-31.936-39.86l6.191-62.943C480.786,316.347,490.626,310.188,498.086,301.56z M495.66,264.171
	c0,16.197-9.774,30.672-23.977,37.188l6.924-70.389C489.103,238.528,495.66,250.845,495.66,264.171z M16.34,264.171
	c0-13.327,6.557-25.642,17.054-33.2l6.924,70.389C26.114,294.843,16.34,280.367,16.34,264.171z M479.319,422.128
	c0,13.515-10.996,24.511-24.511,24.511H57.191c-13.515,0-24.511-10.996-24.511-24.511c0-13.515,10.996-24.511,24.511-24.511h32.681
	c4.513,0,8.17-3.657,8.17-8.17c0-4.513-3.657-8.17-8.17-8.17H64.597L34.389,74.165l101.157,71.403c2.825,1.995,6.597,1.995,9.423,0
	l111.038-78.375l111.031,78.375c2.826,1.994,6.598,1.994,9.423,0l101.148-71.402l-30.206,307.111h-324.85
	c-4.513,0-8.17,3.657-8.17,8.17c0,4.513,3.657,8.17,8.17,8.17h332.243C468.335,397.63,479.319,408.62,479.319,422.128z"/>
<path d="M256,354.043c49.555,0,89.872-40.317,89.872-89.872c0-17.697-5.154-34.833-14.906-49.557
	c-2.491-3.763-7.562-4.791-11.323-2.301c-3.763,2.491-4.792,7.56-2.301,11.323c7.973,12.042,12.188,26.059,12.188,40.536
	c0,40.546-32.986,73.532-73.532,73.532s-73.532-32.986-73.532-73.532s32.987-73.533,73.533-73.533
	c14.478,0,28.494,4.215,40.536,12.188c3.763,2.491,8.831,1.462,11.323-2.301c2.491-3.762,1.462-8.83-2.301-11.323
	c-14.725-9.75-31.862-14.905-49.558-14.905c-49.555,0-89.872,40.317-89.872,89.872S206.445,354.043,256,354.043z"/>
<path d="M256,206.979c-31.535,0-57.191,25.657-57.191,57.191s25.657,57.191,57.191,57.191s57.191-25.657,57.191-57.191
	S287.535,206.979,256,206.979z M256,305.022c-22.526,0-40.851-18.325-40.851-40.851S233.474,223.32,256,223.32
	c22.526,0,40.851,18.325,40.851,40.851C296.851,286.697,278.526,305.022,256,305.022z"/>
<circle cx="94.981" cy="315.915" r="8.17"/>
<circle cx="127.662" cy="348.596" r="8.17"/>
</svg>