<?xml version="1.0" encoding="UTF-8"?>
<!-- Generator: Adobe Illustrator 26.0.0, SVG Export Plug-In . SVG Version: 6.00 Build 0)  -->
<svg xmlns="http://www.w3.org/2000/svg" xmlns:xlink="http://www.w3.org/1999/xlink" version="1.1" id="Capa_1" x="0px" y="0px" viewBox="0 0 562.4 435.9" style="enable-background:new 0 0 562.4 435.9;" xml:space="preserve">
<style type="text/css">
	.st0{clip-path:url(#SVGID_00000164491821633135511230000008649081478339105175_);fill:#0069B4;}
	.st1{clip-path:url(#SVGID_00000103232912157514559770000015605264972648854452_);}
	.st2{fill:#FFA497;}
	.st3{fill:#F45763;}
	.st4{fill:#FCFCFC;}
	.st5{fill:#D5EDFF;}
	.st6{fill:#BBD9EA;}
	.st7{fill:none;stroke:#BBD9EA;stroke-width:0.6483;stroke-miterlimit:10;}
	.st8{fill:#1F2866;}
	.st9{fill:#21387A;}
	.st10{fill:#303030;}
	.st11{fill:#232323;}
	.st12{fill:#FFFFFF;}
	.st13{fill:#262626;}
	.st14{fill:#1C1C1C;}
	.st15{fill:#A04F58;}
	.st16{fill:#713349;}
	.st17{fill:#00E1FF;}
	.st18{fill:#0069B4;}
	.st19{fill:#E94F35;}
	.st20{clip-path:url(#SVGID_00000034067580280020893930000006092954547307887781_);fill:#E94F35;}
	.st21{clip-path:url(#SVGID_00000000909728957482676350000005263562249634711453_);}
	.st22{fill:#FFC5C7;}
	.st23{fill:#4371D6;}
	.st24{fill:#3164BC;}
	.st25{fill:#FF8A8B;}
	.st26{fill:#050233;}
	.st27{fill:#00B0F9;}
	.st28{fill:#1B1B1B;}
	.st29{fill:#E21926;}
	.st30{fill:#FF8384;}
	.st31{fill:#1A1A1A;}
	.st32{fill-rule:evenodd;clip-rule:evenodd;fill:#FFFFFF;}
</style>
<g>
	<g>
		<g>
			<g>
				<g>
					<g>
						<g>
							<g>
								<g>
									<g>
										<g>
											<g>
												<g>
													<g>
														<g>
															<g>
																<defs>
																	<path id="SVGID_1_" d="M379.3,351.4c13.3-17.3,23.7-37.3,30.7-57.9c9.7-28.2,15.6-61.9,13.5-92.1                   c-1-12-4.3-24.5-11.2-34.1c-6.6-9-17.7-14.1-27.9-18c-50.8-20.1-104.9-31.5-159.5-32.7c0,0,0,0-0.1,0                   c-7.1-0.1-13.8-0.1-20.6,0c-56.6,1.8-126.9,22-140.4,85.5c-2.6,13-2.5,26.4,1,39.2c5.8,20.6,19.5,38,34.4,53.5                   c19.5,20.3,38,41.2,56.1,63c20.2,24.3,45.7,43.9,76.6,51.7c16.2,4.1,32.9,4.9,49.2,2.6                   C322.1,406.3,355.3,383,379.3,351.4"></path>
																</defs>
																<clipPath id="SVGID_00000013876689656020909480000004719960043870692775_">
																	<use xlink:href="#SVGID_1_" style="overflow:visible;"></use>
																</clipPath>
																<path style="clip-path:url(#SVGID_00000013876689656020909480000004719960043870692775_);fill:#0069B4;" d="                  M379.3,351.4c13.3-17.3,23.7-37.3,30.7-57.9c9.7-28.2,15.6-61.9,13.5-92.1c-1-12-4.3-24.5-11.2-34.1                  c-6.6-9-17.7-14.1-27.9-18c-50.8-20.1-104.9-31.5-159.5-32.7c0,0,0,0-0.1,0c-7.1-0.1-13.8-0.1-20.6,0                  c-56.6,1.8-126.9,22-140.4,85.5c-2.6,13-2.5,26.4,1,39.2c5.8,20.6,19.5,38,34.4,53.5c19.5,20.3,38,41.2,56.1,63                  c20.2,24.3,45.7,43.9,76.6,51.7c16.2,4.1,32.9,4.9,49.2,2.6C322.1,406.3,355.3,383,379.3,351.4"></path>
															</g>
														</g>
													</g>
												</g>
											</g>
										</g>
									</g>
								</g>
							</g>
						</g>
					</g>
				</g>
			</g>
		</g>
		<g>
			<g>
				<g>
					<g>
						<g>
							<g>
								<g>
									<g>
										<g>
											<g>
												<g>
													<g>
														<g>
															<g>
																<defs>
																	<path id="SVGID_00000171682000221290196120000006029552911899186059_" d="M379.3,351.4                   c13.3-17.3,23.7-37.3,30.7-57.9c9.7-28.2,15.6-61.9,13.5-92.1c-1-12-4.3-24.5-11.2-34.1c-6.6-9-17.7-14.1-27.9-18                   c-50.8-20.1-104.9-31.5-159.5-32.7c0,0,0,0-0.1,0c-7.1-0.1-13.8-0.1-20.6,0c-56.6,1.8-126.9,22-140.4,85.5                   c-2.6,13-2.5,26.4,1,39.2c5.8,20.6,19.5,38,34.4,53.5c19.5,20.3,38,41.2,56.1,63c20.2,24.3,45.7,43.9,76.6,51.7                   c16.2,4.1,32.9,4.9,49.2,2.6C322.1,406.3,355.3,383,379.3,351.4"></path>
																</defs>
																<clipPath id="SVGID_00000137128898745798551320000005635288733963073968_">
																	<use xlink:href="#SVGID_00000171682000221290196120000006029552911899186059_" style="overflow:visible;"></use>
																</clipPath>
																<g style="clip-path:url(#SVGID_00000137128898745798551320000005635288733963073968_);">
																	<g>
																		<g>
																			<path class="st2" d="M238.6,284.4c3.7,4.4,7.1,11.5,9,12.7c2,1.2,5.4,1.4,8.9,12.1c3.4,10.6-13.5,9-13.5,9                     s-7.1-4.1-10.1-13.9l-7.1-6.4L238.6,284.4z"></path>
																			<path class="st3" d="M251.7,317.6c0,0-5.4-1.8-10.1-6.6c-4.6-4.9-5.3-13.5-5.3-13.5l-2.2,4.1l-4.4-4.7l-2-0.1                     l-1.4,1.8l7.2,6.4c2.8,9.9,10.1,13.9,10.1,13.9s4.6,0.5,8.5-0.7C251.7,317.7,251.7,317.6,251.7,317.6z"></path>
																			<path class="st4" d="M213.6,246.4c5.2,3.7,8.2,6.4,10.6,11.5c2.5,5.2,18.5,23.3,19.4,24.9                     c1,1.8-8.9,18.9-16.8,23.2c0,0-12.1-13.9-18.9-19.1c-7.1-5.3-4.6-23.8-1.3-30.2                     C209.9,250.6,213.6,246.4,213.6,246.4z"></path>
																			<path class="st5" d="M213.9,280v-10.3c0,0-1.3-0.6-2.4,2.8c-0.5,1.3-0.5,2.8-0.1,4.1l-7.8-5.8                     c-0.5,6.4,0.7,13,4.4,16c7.1,5.3,18.9,19.1,18.9,19.1c2-1.2,4.3-3.1,6.4-5.4C228.1,295.8,219.1,286.3,213.9,280z                     "></path>
																			<path class="st2" d="M263.2,314.6c1.3,0.5,2.2,1,2.2,2.6c0,1.7-0.5,4.3-1,5.3c-0.7,1-4,1.8-4,1.8                     s0.1-7.1,0.8-8.2C262.5,314.9,263.2,314.6,263.2,314.6z"></path>
																			<path class="st3" d="M264.7,322.6c0.1-0.5,0.5-0.7,0.5-1.2c-0.7,0.7-1,0.7-1.9,0.8l-2.5,0.8c0,0.8,0,1.3,0,1.3                     S264,323.7,264.7,322.6z"></path>
																			<path class="st2" d="M260,311.9c1.8,0.1,3.2,1.3,3.2,3.1c0,1.8,0.6,6.4,0,7.1s-3.4,2.8-4.4,3.1                     c-1,0.1-2.5,0-2.4-0.7C256.7,323.9,260,311.9,260,311.9z"></path>
																			<path class="st3" d="M263.5,320.9c-1.2,1.3-4.4,1.2-4.4,1.2s-1.3,1.4-1.4,1.9c0,0.5-0.7,0.7-0.7,1                     c0.6,0.1,1.3,0.5,2,0.1c1-0.1,3.7-2.2,4.4-3.1L263.5,320.9L263.5,320.9z"></path>
																			<path class="st2" d="M254.1,309.3c4.9,0.5,5.8,0.7,6.1,2.6c0.1,2,0,7.8-0.6,9.4c-0.7,1.4-1,2.8-1.8,3.7                     c-0.8,0.8-2,0.8-2,0.8s-2.6-4-2.8-7.3C252.9,315.1,254.1,309.3,254.1,309.3z"></path>
																			<path class="st3" d="M257,322.6c-0.1-1.3-0.8-2.8-0.8-7.3c0-1.8-1.8,7.2-0.8,9.7c0.5,0.6,0.6,1,0.6,1                     s1.2,0,2-0.8s1.2-2,1.8-3.7c0,0,0-0.1,0-0.5C259.4,321.8,258.3,322.4,257,322.6z"></path>
																			<path class="st2" d="M243.3,319.3c0.5,2.6,4,3.7,4.3,5.2c0.5,1.3,0,2.6,0.8,3.1c0.7,0.5,3.7-1.2,3.4-3.1                     c0,0,0.7,1.4,2.4,1.9s2-1,1.8-2.6c-0.5-1.9-0.1-2.8-0.1-5.2c0-2.2,0.6-4.3-0.5-6.6c-1-2.4-2.2-4.6-4.9-4.1                     c-2.6,0.5-4.3,3.7-5.6,4.9C243.4,313.7,242.8,316.5,243.3,319.3z"></path>
																			<path class="st3" d="M251.8,324.4c-0.1-3.4-0.5-6.4-0.5-7.1c0-0.6,0.1-4.3-1.2-4.6c-0.1,0-3.1,1.9-3.2,3.1                     c0,1.2,0,3.4,0.8,4.1C248.9,320.7,251.8,324.4,251.8,324.4z"></path>
																		</g>
																		<g>
																			<path class="st4" d="M131.8,254c5.3-6.6,7.1-7.3,12.3-10.3c5.4-3.2,26-11.2,30.2-12.1c4.3-1,21.3,7.1,26.9,9.5                     c5.6,2.5,12.7,5.2,13.9,7.6c4.1,8.4-4,20.1-4,44.6c0,13-2.8,41.8-2.8,41.8s-64.4,0.1-65.4-1.2                     c-0.8-1.3-3.2-47.7-4.3-57.1C137.5,267,131.8,254,131.8,254z"></path>
																			<g>
																				<path class="st6" d="M215.1,261.1c0-0.8,0-1.8,0-2.4c0-0.8,0.1-1.8,0.5-2.4c0.1-0.8,0.1-1.8,0.5-2.4                      c0.1-0.8,0.5-1.8,0.6-2.4c0,0.8,0,1.8,0,2.4c0,0.8-0.1,1.8-0.5,2.4c-0.1,0.8-0.1,1.8-0.5,2.4                      C215.6,259.5,215.4,260.5,215.1,261.1z"></path>
																			</g>
																			<path class="st5" d="M191.1,251.5c2.5-1,8.4,0.7,9.5,1.2c1.2,0.5-0.7-4.3-1.2-4.7c-0.7-0.6-1.8-1.9-3.7-1.3                     c-2,0.6-3.7,2.8-4,3.7C191.5,250.7,191.1,251.5,191.1,251.5z"></path>
																			<path class="st5" d="M170.3,255.3c0.8,0,6.1-2.4,7.3-3.1c1.2-0.6,7.1-0.8,10.6,0.1c0,0-7.2-4.9-11.5-4.9                     s-5.8,1.4-6.4,2.8C170.3,251.9,170.3,255.3,170.3,255.3z"></path>
																			<path class="st5" d="M198,324.2c-0.7-0.7-43,0.7-43.6-3.7c-0.8-4.4-1.4-12.3-1.4-12.3c5.2,2.6,12.3,1.8,12.3,1.8                     c-4.9-1.8-12.1-9.5-12.3-12.1c-1-7.3,2.8-27.4,2.8-27.4l-2.8-5.8l-3.2-1.9c0,0-6.4,3.1-11.8,9                     c0.5,1.8,0.7,3.2,0.8,4.6c1.2,8.9,3.1,50.4,4.1,56.4c13,0.5,36.7,1.3,52.5,1.9c7.6,0,13,0,13,0s0-3.7,0.5-9                     C204.2,325,198.3,324.7,198,324.2z"></path>
																			<path class="st4" d="M189.4,252.7c-4.6-0.6-12-4.6-14.7-3.1c-2.8,1.3-3.7,4.7-4.1,5.4c-0.6,0.7-3.1-2.4-3.1-9.5                     c0-7.2-0.1-14.7,5.3-15.6c5.4-1,19.2,4.3,22,6.4c2.8,2,4,4.3,4.7,6.4c0.7,2,2.8,10.3,1.9,10.3                     c-1,0-3.7-5.3-5.4-5.4C193.8,247,190.7,252.8,189.4,252.7z"></path>
																			<path class="st5" d="M191.9,246.2c1.2-2.6,2.4-5.3,2.4-7.1c0-1.9-0.5-3.2-2.5-3.7c-2-0.6-3.1,0.6-3.1,3.4                     C188.6,241.6,191.9,246.2,191.9,246.2z"></path>
																			<path class="st5" d="M175.4,241.1c-4.4-4-4.9-8.5-4.6-9.4c0.5-1,2.2-1.8,2.2-1.8s0.7,2.8,0.5,3.7                     C173.1,234.3,175.4,241.1,175.4,241.1z"></path>
																			<path class="st7" d="M182.5,250.7c-2.6-1-7.2-2-8.7-0.7c-1.4,1.4-1.9,2-2.5,3.4c-0.7,1.3-1,2.6-2.5-0.7                     c-1.8-3.4-1.2-10.3-1.2-10.3"></path>
																			<path class="st7" d="M193,249.1c0,0,2.2-2.5,3.1-2c0.8,0.6,2,1.2,3.4,3.4c1.3,2.2,3.1,3.4,1.8-2.2"></path>
																			<path class="st2" d="M192.6,229.7c0,1.8,0,3.7-0.5,5.3c-0.5,4.4,0,10.3-0.5,11.2c-0.5,1.2-2.6,5.4-2.6,5.4                     s-4.1-1.9-5.8-4c-1.8-2-4-2-6.9-5.3c-2.8-3.1-4.9-7.8-4.3-11.8c0-0.6,0.6-5.4,0.7-10.7c0-5.3,5.6-9,10.8-9                     s8.4,7.8,8.7,13C192.6,226,192.6,228.1,192.6,229.7z"></path>
																			<path class="st3" d="M173.2,220.1c0,5.3-0.7,10.3-0.7,10.7c-0.1,1.2-0.1,2.5,0,3.7c1.2,0.1,16.2,0.6,20-1.2                     c0-1.2,0.1-2.5,0.1-3.7c0-1.8,0-3.7,0-5.8c0-2-0.7-4.9-1.8-7.2l-12.3-4.4C175.6,214,173.2,216.7,173.2,220.1z"></path>
																		</g>
																		<g>
																			<path class="st8" d="M201.8,198.1c7.9,0,10.8,6.1,10.8,10.6c0,4.1-1.3,10.6-10.8,10.6c-4.7,0-7.9-4.7-7.9-10.6                     C193.8,203,197,198.1,201.8,198.1z"></path>
																			<path class="st9" d="M202.2,200.7c5.9,0,8.2,4.6,8.2,7.9c0,3.1-1,7.9-8.2,7.9c-3.7,0-6.1-3.7-6.1-7.9                     C196.3,204.3,198.6,200.7,202.2,200.7z"></path>
																			<path class="st2" d="M211.9,201.9c-0.5,2.6-1.9,3.7-2.5,7.6c-0.6,3.7,1,9-1.3,13.9c-2.4,4.7-6.4,11.1-8.7,11.2                     c-2.2,0.5-20.6-2.8-26.8-15.3c-1.8-3.4-5.4-17.3-2.4-25.8c3.2-8.5,8.5-16.2,20.7-16.2                     C203,176.9,214.3,187.2,211.9,201.9z"></path>
																			<path class="st3" d="M201.6,217c-0.7,0-1.3-0.1-1.8-0.7c-0.5-0.5-0.5-0.8-0.5-1.3c1,0.8,2,1,3.2,0.7                     C203,216.6,202.3,217,201.6,217z"></path>
																			<path class="st10" d="M180,201.9c0.5-2.8,2.4-4.6,2.4-4.6s4.6-1.9,8.4-2.2c3.7-0.5,7.3-1.3,7.3-1.3                     s-1.2,2.8-3.1,4.1c0,0,8.7-0.5,11.2-3.1c0,0-0.6,2-1.2,3.4c0,0,4.3-0.5,5.4-2c0,0,1.2,3.7,1.2,5.6                     c0,0,5.2-7.1,3.7-12.3c-1.3-5.4-3.1-7.6-3.1-7.6s3.7,0.5,5.6,0c0,0-4.6-4.1-8.2-6.9c-3.4-2.6-13.9-2.8-13.9-2.8                     s0.8-2.8-0.1-7.2c0,0-4.6,6.6-9,8.7c-4.7,2-4.1,1.9-9,3.1c-5.2,1.2-9.9,4.6-12,7.2c-2,2.6-4.3,5.4-5.4,5.9                     c0,0,3.2-0.5,4.7-1.8c0,0-2.5,5.9,0.8,13.8c3.4,7.6,12.1,5.4,13.9,3.7C181,203.9,180,201.9,180,201.9z"></path>
																			<path class="st11" d="M179.3,205.7c1.8-1.8,0.7-3.7,0.7-3.7c0.5-1.8,1.2-3.1,1.8-3.7c-1.2-7.6-0.7-15.6,1.4-23.2                     c-1.3,0.6-2,0.8-4,1.2c-2.4,3.4-4.1,7.6-5.3,11.5c-1.4,5.2-2.2,10.6-0.8,15.6c0.5,1.3,0.8,2.5,1.8,3.7                     C176.9,207,178.8,206.3,179.3,205.7z"></path>
																			<path class="st8" d="M177,198.9c0,0-0.6-19.2,9.5-25.2c0,0-7.8-0.8-12.3,7.1c-4.6,7.8-4.1,14.7-4.1,18.2                     C170.3,202.4,177,198.9,177,198.9z"></path>
																			<path class="st8" d="M173.8,198.1c-7.9,0-10.8,6.1-10.8,10.6c0,4.1,1.3,10.6,10.8,10.6c4.7,0,7.9-4.7,7.9-10.6                     S178.8,198.1,173.8,198.1z"></path>
																			<path class="st9" d="M178.2,208.9c0-5.3-3.4-9.5-7.6-9.5c-4.3,0-7.6,4.3-7.6,9.5c0,5.3,3.2,9.5,7.6,9.5                     C174.8,218.4,178.2,214.1,178.2,208.9z"></path>
																			<ellipse class="st8" cx="169.5" cy="208.9" rx="5.3" ry="6.4"></ellipse>
																			<g>
																				<path class="st3" d="M194,219.5c2,1.2,9,1.8,9.5,1.4c0.5,0-0.6,5.3-2.2,5.4c-1.8,0.1-5.3-0.5-6.6-1.8                      C193.4,223.5,194,219.5,194,219.5z"></path>
																				<path class="st12" d="M194.5,221.1c0.1-0.5,0.1-0.8,0.5-1.2c2.4,0.8,7.1,1.2,8.5,1.2c0,0.7-0.5,1.4-0.6,2l0,0                      C199.6,223.7,196.4,222.7,194.5,221.1z"></path>
																			</g>
																			<path class="st10" d="M195,206.9c0-1-0.5-1.8-1.2-1.8c-0.6,0-1.2,0.8-1.2,1.8s0.5,1.8,1.2,1.8                     C194.6,208.7,195,207.7,195,206.9z"></path>
																			<path class="st10" d="M207.3,207.6c0-1-0.5-1.8-1-1.8c-0.7,0-1,0.8-1,1.8s0.5,1.8,1,1.8S207.3,208.6,207.3,207.6                     z"></path>
																			<path class="st10" d="M189.1,199.9c0.7-0.5,1.4-0.7,2.4-0.8c0.8-0.1,1.8-0.5,2.5-0.5c0.8,0,1.8,0,2.5,0.1                     c0.8,0.5,1.8,0.8,2,1.4l0,0c-0.8,0-1.8-0.5-2.4-0.5c-0.7,0-1.4-0.5-2.2-0.5C192.2,199.4,190.7,199.5,189.1,199.9                     L189.1,199.9z"></path>
																			<path class="st10" d="M210.5,202.2c-0.5-0.1-0.8-0.1-1.2-0.5c-0.5-0.1-0.8,0-1.2,0s-0.8,0.1-1.2,0                     c-0.1,0-0.5,0-0.6-0.1c-0.1,0-0.5-0.1-0.7-0.5V201c0.5-0.5,0.8-0.6,1.2-0.6s0.8,0,1.3,0.1c0.5,0,0.8,0.5,1.2,0.5                     c0.5,0.1,0.7,0.5,1.2,0.7V202.2L210.5,202.2L210.5,202.2z"></path>
																			<path class="st8" d="M179.6,213.6l-1.4,2.4c0,0,2,1.9,4.4,3.7c2,1.4,4.4,2.5,5.6,3.2l1.2-2.2                     c0,0-3.2-1.9-5.2-3.1C182.9,216.6,179.6,213.6,179.6,213.6z"></path>
																			
																				<ellipse transform="matrix(0.3702 -0.929 0.929 0.3702 -86.6367 314.9691)" class="st8" cx="189" cy="221.4" rx="2.2" ry="3.2"></ellipse>
																		</g>
																		<g>
																			<path class="st13" d="M198,328.5c0,0.5,0.5,0.7,1.3,0.7s26,0,29.4,0c3.5,0,4.1-1.3,3.2-3.1                     c-1-1.8-5.3-5.4-15.9-7.9c-10.6-2.5-16.2,3.4-17.9,6.4C196.6,326.4,198,328.5,198,328.5z"></path>
																			<path class="st14" d="M232.1,326.6c-0.6,1.9-23.1,1-23.1,1s2.2-3.1,4.7-3.1s3.7,0.8,7.1,1.3                     c3.4,0.6,0.8-1.3,0.8-1.3s2.4-0.6,3.4-1.2c0,0-5.4-1.8-7.8-2c-2.4-0.5-8.2-0.1-9,0c-0.6,0-3.2-1.4-6.6-0.7                     c-1.9,1.3-3.1,2.8-3.7,4c-1.2,2,0,4.1,0,4.1c0,0.5,0.5,0.7,1.3,0.7s26,0,29.4,0                     C231.6,329.1,232.6,328,232.1,326.6z"></path>
																			<path class="st2" d="M136.2,310.1c0,0,21,3.2,32.1,5.3c10.7,1.9,20,2.6,22.6,2.2c2.6-0.6,11.5-3.7,14.4-5.2                     c2.8-1.2,8.7-1.9,11.5-1c2.8,1,5.4,2,6.6,2c1.2,0,1,1.9-0.6,2.2c-1.8,0.5-3.1,0.5-3.1,0.5s5.4,2.8,6.4,3.2                     c1,0.5-0.1,2-1.4,1.9c0,0,1.2,0.7,0.7,1.3c-0.5,0.7-3.2,0.7-3.2,0.7s3.4,1.8,0.6,2.4c-2.8,0.7-6.4-2.5-7.6-2.8                     c-1.3-0.5-4.6,0-6.4,1.2c-1.8,1.2-8.4,6.6-17.4,3.4c0,0-62.9,2.5-69.1,2.5c-6.4,0-10.1-5.4-7.9-16.2                     c2-10.6,5.9-18.6,5.9-18.6l21.5,1.3L136.2,310.1z"></path>
																			<g>
																				<path class="st3" d="M215.1,314.6c-0.6-0.1-1-0.1-1.2-0.1C213.9,314.5,214.3,314.6,215.1,314.6z"></path>
																				<path class="st3" d="M220.1,316.4c0,0,1.3,0,3.1-0.5c0.5,0,0.8-0.5,1-0.6c-1.8,0.8-4,0.5-5.2,0                      c-0.7-0.1-2.5-0.6-3.7-0.7C216.4,314.9,218.2,315.3,220.1,316.4z"></path>
																			</g>
																			<g>
																				<path class="st3" d="M219.7,318.8c-0.1,0-0.1,0-0.5-0.1C219.4,318.5,219.5,318.5,219.7,318.8z"></path>
																				<path class="st3" d="M226.2,320.7c0,0-0.7,0.6-2,0c-1.2-0.5-3.7-1.4-4.6-1.9c1.2,0.6,4.3,2.2,5.2,2.5                      C225.5,321.4,226,321.2,226.2,320.7z"></path>
																			</g>
																			<path class="st3" d="M223,323c-1-0.5-2.8-1.4-4.3-2c-1.2-0.6-2.8-0.7-2.8-0.7s0.5,0,1.8,0.7                     c1.2,0.6,4.6,2.6,4.6,2.6s1.9,0,2.6-0.5C225.2,323,224.2,323,223,323z"></path>
																			<path class="st3" d="M205.3,324.2c-1.8,1.2-7.1,2.5-10.3,2c-3.1-0.6-3.7-3.2-3.7-3.2l-0.8,2.8                     c0,0-43.6,1.2-52.5,0.8c-8.7-0.5-22.5-0.6-24.3-5.8c0.5,6.1,3.7,9,8.5,9c6.4,0,69.1-2.5,69.1-2.5                     c9,3.2,16-2.2,17.4-3.4c1.3-1,3.7-1.2,5.4-1.2l0,0C212,322.1,207.2,323,205.3,324.2z"></path>
																			<path class="st3" d="M136.2,310.1c0,0-8.2-1.2-9.7-1.2l1.2-5.2l10.3,2L136.2,310.1z"></path>
																			<path class="st4" d="M114.5,295.8c-0.5,0.8,0,1.8,0.6,2.2c3.7,3.7,8.7,8.7,13.9,9.5c5.4,0.8,14.8,1.2,15.5,0                     c0.6-1.2,2.4-16.2,5.8-23.8c3.4-7.6,5.4-11.5,6.4-15.9c0.8-4.4-6.9-14.7-10.3-15.6c-3.4-0.8-11.2-1.3-14.2,1.4                     c-3.2,2.8-5.4,13.9-9.4,22C119.6,282.7,115.9,292.5,114.5,295.8z"></path>
																			<g>
																				<path class="st5" d="M135.3,252.2c2-0.6,4.1-0.7,6.4-0.7c1,0,2,0,3.1,0.1c0.6,0,1,0.1,1.4,0.5                      c0.6,0.1,1,0.5,1.4,0.6c1.9,1,3.4,2.6,4.6,4.4c1.2,1.8,2,3.7,2.8,5.6c-1-1.9-2-3.7-3.2-5.3                      c-0.6-0.8-1.2-1.8-2-2.4c-0.7-0.7-1.4-1.3-2.4-1.9c-0.5-0.1-0.8-0.5-1.3-0.6c-0.6,0-1-0.1-1.4-0.5                      c-1-0.1-2-0.5-3.1-0.5C139.4,251.9,137.5,251.9,135.3,252.2z"></path>
																			</g>
																			<path class="st5" d="M118.6,299.1c0-2.6,5.8-27.5,10.7-41.3l0,0c-2,4.7-4.1,12.3-7.1,18.5                     c-3.1,6.9-6.9,16.2-8.2,19.8c-0.5,0.8,0,1.8,0.6,2.2c1.4,1.3,3.1,3.1,4.7,4.6                     C119.6,302.8,118.5,301.6,118.6,299.1z"></path>
																		</g>
																	</g>
																	<g>
																		<g>
																			<path class="st13" d="M250,323.9h62.6c0.6,0,1.2,0.6,1.2,1.2v2.6c0,0.6-0.6,1.2-1.2,1.2H250V323.9z"></path>
																			<path class="st13" d="M233.9,327.6v1.2c0,0.1,0.1,0.5,0.5,0.5H250c0.5,0,0.8-0.5,0.8-0.8V325c0-0.6-0.5-1-1-0.8                     l-15.6,3.1C233.9,327.2,233.9,327.3,233.9,327.6z"></path>
																		</g>
																		<g>
																			<g>
																				<path class="st14" d="M359.2,217.8H242.3c-2.4,0-4.6,1.4-5.3,3.7l-25.5,70.9c-1.2,3.7,1.8,6.4,5.9,7.1                      c0.7,0,3.7-1.3,8.7-3.7h104.3c2.4,0,4.6-1.4,5.3-3.7l23.1-64.1c4-2,6.1-3.2,6.1-3.2S366.6,217.8,359.2,217.8z"></path>
																				<path class="st13" d="M246,221.4h116.8c1.8,0,2.8,1.8,2.2,3.2l-25.5,70.9c-0.8,2.2-2.8,3.7-5.3,3.7H217.4                      c-1.8,0-2.8-1.8-2.2-3.2l25.5-70.8C241.6,223,243.6,221.4,246,221.4z"></path>
																				<polygon class="st14" points="272.5,299.4 277.8,280.2 297.4,299.4                     "></polygon>
																				<path class="st14" d="M300.7,246.4c-0.6,3.2-2.5,4.4-5.2,4.4c-2.5,0-4.3-2-4-4.4c0.5-2.4,2.5-4.4,5.2-4.4                      C299.3,242,301.2,243.9,300.7,246.4z"></path>
																				<g>
																					<g>
																						<g>
																							<polygon class="st14" points="246,287.5 247.4,283.4 245.4,283.4 244,287.5                        "></polygon>
																						</g>
																						<g>
																							<polygon class="st14" points="250,287.5 251.7,283.4 249.8,283.4 248.1,287.5                        "></polygon>
																						</g>
																						<g>
																							<polygon class="st14" points="253.9,287.5 255.7,283.4 253.6,283.4 251.9,287.5                        "></polygon>
																						</g>
																						<g>
																							<polygon class="st14" points="258.1,287.5 259.4,283.4 257.6,283.4 255.9,287.5                        "></polygon>
																						</g>
																					</g>
																				</g>
																				<g>
																					<g>
																						<g>
																							<polygon class="st14" points="314.3,287.5 316,283.4 314,283.4 312.4,287.5                        "></polygon>
																						</g>
																						<g>
																							<polygon class="st14" points="318.3,287.5 319.8,283.4 318,283.4 316.4,287.5                        "></polygon>
																						</g>
																						<g>
																							<polygon class="st14" points="322.4,287.5 323.8,283.4 321.9,283.4 320.4,287.5                        "></polygon>
																						</g>
																						<g>
																							<polygon class="st14" points="326.5,287.5 327.8,283.4 325.9,283.4 324.7,287.5                        "></polygon>
																						</g>
																					</g>
																				</g>
																			</g>
																			<g>
																				<path class="st14" d="M312,322.3c-1.2-3.4-15.3-48.4-15.3-48.4h-17.9l-1.2,6.4c0,0,12.1,38.7,13,42                      c0,0.1,0.1,0.6,0.1,0.7l0,0c1.2,3.2-1.8,3.2-4.9,3.2s-31.7,0-31.7,0v2.8h31.7H307                      C313.6,329.1,313,325.4,312,322.3z"></path>
																				<path class="st13" d="M278.7,273.9c0,0,13.9,45.1,15.3,48.4c1.2,3.4,1.8,7.1-4.6,7.1h21.2                      c6.4,0,5.8-3.7,4.6-7.1c-1.2-3.4-15.3-48.4-15.3-48.4H278.7L278.7,273.9z"></path>
																				<path class="st14" d="M283.2,273.9c1.3,0,2.6,0,4.1-0.1c1.3-0.1,2.6,0,4.1,0c1.3,0,2.6,0,4.1,0h4.1h0.1v0.1                      c0.6,1.9,1.2,3.7,1.8,5.4l1.8,5.4c1.2,3.7,2,7.3,3.1,11.1c-1.2-3.7-2.5-7.2-3.7-10.8l-1.8-5.4                      c-0.6-1.9-1.2-3.7-1.8-5.4l0.5,0.1h-4.1c-1.3,0-2.6,0-4.1,0c-1.3,0-2.6,0-4.1,0                      C285.9,273.9,284.6,273.9,283.2,273.9z"></path>
																			</g>
																		</g>
																	</g>
																	<g>
																		<path class="st15" d="M405.4,340.3H96c-3.1,0-5.4-2.5-5.4-5.4l0,0c0-3.1,2.5-5.4,5.4-5.4h309.4                    c3.1,0,5.4,2.5,5.4,5.4l0,0C411.1,337.7,408.6,340.3,405.4,340.3z"></path>
																		<path class="st16" d="M405.4,439H96c-3.1,0-5.4-86.3-5.4-104.3l0,0H411l0,0C411.1,352.6,408.6,439,405.4,439z"></path>
																	</g>
																</g>
															</g>
														</g>
													</g>
												</g>
											</g>
										</g>
									</g>
								</g>
							</g>
						</g>
					</g>
				</g>
			</g>
		</g>
	</g>
	<g>
		<ellipse class="st17" cx="64.8" cy="215.9" rx="31.5" ry="31.5"></ellipse>
		<path class="st12" d="M70.5,201H59.7c-1.8,0-3.2,1.3-3.2,3.2v23.7c0,1.8,1.3,3.2,3.2,3.2h10.8c1.8,0,3.2-1.3,3.2-3.2v-6.6v-14.2    v-2.8C73.8,202.4,72.2,201,70.5,201z M66.5,229.6h-3.2c-0.5,0-0.8-0.5-0.8-0.8c0-0.5,0.5-0.8,0.8-0.8h3.1c0.5,0,0.8,0.5,0.8,0.8    S66.7,229.6,66.5,229.6z M72,206.3v0.6v14.2v1.8v2.8c0,0.5-0.5,0.8-0.8,0.8H58.9c-0.5,0-0.8-0.5-0.8-0.8V206    c0-0.5,0.5-0.8,0.8-0.8h12.5C71.6,205.4,72,205.9,72,206.3L72,206.3L72,206.3z"></path>
	</g>
	<g>
		<ellipse class="st17" cx="161.3" cy="117.4" rx="31.9" ry="31.9"></ellipse>
		<path class="st12" d="M173.1,122.1c-1.8,0-3.5-0.1-5.3-0.8c-0.1,0-0.5,0-0.8,0c-0.1,0-0.5,0.1-0.6,0.5l-2.2,2.8    c-4.4-2.2-7.9-5.8-10.3-10l2.8-2.3c0.1-0.1,0.5-0.5,0.5-0.6s0-0.6,0-0.8c-0.6-1.8-0.8-3.5-0.8-5.3c0-0.5-0.1-0.8-0.5-1    c-0.1-0.1-0.6-0.5-1-0.5h-5.3c-0.8,0-1.8,0.5-1.8,1.4c0,6.7,2.6,13,7.6,17.7c4.6,4.6,11.2,7.3,17.7,7.6c0.5,0,0.8-0.1,1.2-0.5    c0.1-0.5,0.5-0.6,0.5-1.2l0,0v-5.3c0-0.5-0.1-0.8-0.5-1C173.8,122.5,173.6,122.5,173.1,122.1z"></path>
	</g>
	<g>
		<circle class="st17" cx="144" cy="338.1" r="31.9"></circle>
		<g>
			<path class="st12" d="M150.4,350.3L150.4,350.3c-1.3-0.1-2.2-0.8-2.5-1.3h-7.7c-0.5,0.6-1.3,1.2-2.6,1.3l0,0     c-0.5,0-0.8,0.5-0.8,0.8s0.5,0.8,0.8,0.8h13c0.5,0,0.8-0.5,0.8-0.8C151.1,350.8,150.8,350.3,150.4,350.3z"></path>
			<path class="st12" d="M159,341.9v-15.7c0-1.2-1-2.2-2.2-2.2h-25.5c-1.2,0-2.2,1-2.2,2.2v16.2l0,0v2.8l0,0v0.1l0,0l0,0     c0,1,1,1.9,1.9,1.9h8.9h1h6.7h0.6h9.3c1,0,1.9-0.8,1.9-1.9C159,345.8,159,341.9,159,341.9z M145.8,345.3c0,0.1-0.1,0.5-0.5,0.5     h-2.4c-0.1,0-0.5-0.1-0.5-0.5v-0.5c0-0.1,0.1-0.5,0.5-0.5h2.5c0.1,0,0.5,0.1,0.5,0.5L145.8,345.3L145.8,345.3z M157,342.6h-25.7     c-0.1,0-0.5-0.1-0.5-0.5v-16.2c0-0.1,0.1-0.5,0.5-0.5H157c0.1,0,0.5,0.1,0.5,0.5v16.2C157.2,342.6,157,342.6,157,342.6z"></path>
		</g>
	</g>
	<g>
		<path class="st12" d="M291.6,90c-35.9,0-65.2,21.3-65.2,47.4c0,16.2,11.5,30.7,28.6,39.3l-12.3,16.7c-1.2,1.7,0.2,3.7,2.2,3.2    l47.4-8.9c37-7.1,64.3-24.3,64.3-50.5S327.5,90,291.6,90z"></path>
		<path class="st18" d="M241.5,197.3c-0.8,0-1.7-0.5-2.2-1.2c-0.7-1-0.7-2.2,0-3.1l11.9-16.2c-17.7-9-28.5-23.7-28.5-39.5    c0-12.7,6.9-24.9,19.2-33.9s28.7-13.9,46.4-13.9c17.4,0,34.1,4.9,46.4,13.9c12.5,9,19.2,21.2,19.2,33.9s-6.1,23.8-18.5,32.9    c-11.2,8.2-27.2,14.5-46.4,18.2l-47.2,8.9C242,197.3,241.8,197.3,241.5,197.3z M288.1,90.5c-35.3,0-64,21-64,46.9    c0,15.5,10.5,30.1,28.3,38.7l0.7,0.2l-12.5,17.2c-0.5,0.7-0.2,1.3,0,1.8c0.2,0.5,0.8,0.8,1.7,0.7l0,0l47-8.9    c18.8-3.7,34.6-9.9,45.4-18c11.9-8.9,17.9-19.7,17.9-32C352.1,111.5,323.4,90.5,288.1,90.5z"></path>
		<g>
			<path class="st18" d="M248.1,129.6h81.6c0.2,0,0.6-0.2,0.6-0.6v-4.1c0-0.2-0.2-0.6-0.6-0.6h-81.6c-0.2,0-0.6,0.2-0.6,0.6v4.1     C247.6,129.3,247.8,129.6,248.1,129.6z"></path>
			<path class="st18" d="M248.1,141.2h81.6c0.2,0,0.6-0.2,0.6-0.6v-4.1c0-0.2-0.2-0.6-0.6-0.6h-81.6c-0.2,0-0.6,0.2-0.6,0.6v4.1     C247.6,141,247.8,141.2,248.1,141.2z"></path>
			<path class="st18" d="M286.8,153.1H330c0.2,0,0.5-0.1,0.5-0.5V148c0-0.2-0.1-0.5-0.5-0.5h-43.2c-0.2,0-0.5,0.1-0.5,0.5v4.6     C286.3,152.9,286.4,153.1,286.8,153.1z"></path>
		</g>
	</g>
	<g>
		<path class="st12" d="M301.1,70.8c0,26.1,27.3,43.4,64.3,50.5l47.4,8.9c1.9,0.5,3.4-1.7,2.2-3.2l-12.3-16.7    c17.2-8.7,28.6-23.1,28.6-39.3c0-26.1-29.2-47.4-65.2-47.4C330.3,23.6,301.1,44.7,301.1,70.8z"></path>
		<path class="st19" d="M415.8,130.5l-47.2-8.9c-19.1-3.7-35.1-10-46.4-18.2c-12.3-9-18.5-20.1-18.5-32.9c0-12.7,6.7-24.9,19.2-33.9    c12.3-9,29-13.9,46.4-13.9c17.7,0,34.1,4.9,46.4,13.9s19.2,21.2,19.2,33.9c0,15.7-10.6,30.4-28.5,39.5l11.9,16.2    c0.7,1,0.7,2.2,0,3.1c-0.6,0.8-1.3,1.2-2.2,1.2C416.1,130.7,416,130.7,415.8,130.5z M304.7,70.8c0,12.3,6,23.2,18,32    c10.8,8.2,26.8,14.4,45.8,18l47.4,8.9l0,0c0.8,0.1,1.3-0.2,1.7-0.7c0.2-0.5,0.5-1,0-1.8L404.8,110l0.7-0.2    C423.2,100.9,434,86.4,434,71c0-25.8-29.1-46.9-64.5-46.9C333.7,24,304.8,45,304.7,70.8z"></path>
		<g>
			<path class="st19" d="M410.4,62.6v-4.2c0-0.2-0.2-0.6-0.6-0.6h-81.5c-0.2,0-0.6,0.2-0.6,0.6v4.1c0,0.2,0.2,0.6,0.6,0.6h81.6     C410,63.1,410.4,62.7,410.4,62.6z"></path>
			<path class="st19" d="M410.4,74.2v-4.1c0-0.2-0.2-0.6-0.6-0.6h-81.5c-0.2,0-0.6,0.2-0.6,0.6v4.1c0,0.2,0.2,0.6,0.6,0.6h81.6     C410,74.8,410.4,74.4,410.4,74.2z"></path>
			<path class="st19" d="M371.5,86.2v-4.6c0-0.2-0.1-0.5-0.5-0.5h-43.2c-0.2,0-0.5,0.1-0.5,0.5v4.6c0,0.2,0.1,0.5,0.5,0.5H371     C371.4,86.7,371.5,86.4,371.5,86.2z"></path>
		</g>
	</g>
	<g>
		<g>
			<g>
				<g>
					<g>
						<g>
							<g>
								<g>
									<g>
										<g>
											<g>
												<defs>
													<circle id="SVGID_00000119085714583177312530000002812327817682471315_" cx="462.2" cy="165.8" r="67"></circle>
												</defs>
												<clipPath id="SVGID_00000133516953926594785630000008642008403621240500_">
													<use xlink:href="#SVGID_00000119085714583177312530000002812327817682471315_" style="overflow:visible;"></use>
												</clipPath>
												
													<ellipse style="clip-path:url(#SVGID_00000133516953926594785630000008642008403621240500_);fill:#E94F35;" cx="462.2" cy="165.8" rx="67" ry="67"></ellipse>
											</g>
										</g>
									</g>
								</g>
							</g>
						</g>
					</g>
				</g>
			</g>
		</g>
		<g>
			<g>
				<g>
					<g>
						<g>
							<g>
								<g>
									<g>
										<g>
											<g>
												<defs>
													<circle id="SVGID_00000012434589701140482210000007910047959999946148_" cx="462.2" cy="165.8" r="67"></circle>
												</defs>
												<clipPath id="SVGID_00000026159872523533892680000007840483996281854851_">
													<use xlink:href="#SVGID_00000012434589701140482210000007910047959999946148_" style="overflow:visible;"></use>
												</clipPath>
												<g style="clip-path:url(#SVGID_00000026159872523533892680000007840483996281854851_);">
													<g>
														<g>
															<path class="st22" d="M376.5,226.7c-1.2,5.8,4.3,11.1,5.9,12.1c1.7,1,13.2,5.6,20.2,5.8s16-14.4,12.3-16.1                 s-29.1-3.5-32-3.5C379.9,224.9,376.5,226.7,376.5,226.7z"></path>
															<path class="st23" d="M394.5,223.6c3.1,17.7,10.2,31.5,12.4,31.7c2.3,0.2,23.7-7.1,29.7-9.9                 c5.8-2.6-1.7-44.4-5.5-43.6c-3.7,0.8-11.8,8.8-18.5,12.5C406,218.2,394.5,223.6,394.5,223.6z"></path>
															<path class="st24" d="M429.8,230.8c-2,3.6-19.1,12.5-28.5,15.9c2.4,5.3,4.6,8.5,5.6,8.7c1.9,0.2,17.9-5.2,26.2-8.5                 C432.5,240.3,429.8,230.8,429.8,230.8z"></path>
															<path class="st22" d="M376.5,225.6c-0.2,7.1,6.1,8.1,13.8,6.3c7.6-1.8,20-18.9,25.5-26.7                 c5.5-7.7,15.9-21.5,17.9-22.7c2.3-1.2,7.1-1.9,11.1-8.9c4.2-7-1.3-21.5-3.2-23.3c-1.9-1.7-18.9,4.1-20.9,7                 c-1.9,2.8,1.4,18.5,0.8,20.6c-0.5,1.9-15,18-21.3,22C393.8,204.1,376.5,220.6,376.5,225.6z"></path>
															<path class="st25" d="M432.7,162.3c1.9-1,2.4-5.5,1.2-4.7c-1.2,0.8-3.5,0.8-6.4,0.8c-3,0-4.2-0.4-4.2-0.4                 s-0.4,1.9-0.4,3.6C423.2,161.6,430.8,163.4,432.7,162.3z"></path>
															<path class="st25" d="M445.9,163.4c-1.2-2.3-2.3-4-2.3-4L432,170.6c-3.1-2.6-7.1-5.3-7.1-5.3l-1,1.7                 c1.9,3.1,3.6,10,3.6,11.5c0,0,1.7,1.9,2.8,2.3c0,0-12.4,19.6-20.3,29.3s-13.3,18-17.1,20.6                 c7.6-4.3,17.9-18.5,22.7-25.5c5.5-7.7,15.9-21.5,17.9-22.7c2.3-1.2,7.1-1.9,11.1-8.9                 C446.4,171,446.5,167.1,445.9,163.4z"></path>
															<path class="st26" d="M421.8,164.4c0.2,1.1,11.8,11.1,13,12.3c0.1,0.1,1,0.2,1.2,0c3.1-2.6,16.5-26.9,16.8-28                 c0.2-0.8-8.8-9-11.4-11.4c-0.5-0.4-1.9-0.1-2.3,0.4C436.3,141.6,421.4,162.9,421.8,164.4z"></path>
															<path class="st11" d="M423,164.4c0.2,1.1,11.8,11.1,13,12.3c1.2,1.1,17.7-26.9,18-28c0.2-0.8-9.7-9-12.4-11.3                 c-0.5-0.4-0.8-0.4-1.1,0.1C437.5,141.6,422.7,162.9,423,164.4z"></path>
															<path class="st27" d="M424.9,162.8c0.1,1,10.9,10.6,12.1,11.5c1.1,1,16.6-25.2,16.8-26.1c0.2-0.8-9-8.5-11.7-10.6                 c-0.5-0.4-0.8-0.4-1,0.1C438.6,141.4,424.8,161.4,424.9,162.8z"></path>
															<path class="st22" d="M431.9,148.9c1.7-1.1,4.1-4.7,4.2-5.9c0.2-1.2,0.1-2.4-0.8-2.6c-0.8-0.4-4,3.7-5.5,4.7                 c-1.6,1.1-3.2,3.6-2.5,5.2c0.8,1.6,4.1,1,4.3,0.8C431.9,150.7,431.9,148.9,431.9,148.9z"></path>
															<path class="st25" d="M435.7,140.8c0.5,1.4-3.1,7.1-6.4,8.7l1.2,1.4c0,0,0.5-0.1,1.2-0.4c0.1-0.7,0.1-1.6,0.1-1.6                 c1.7-1.1,4.1-4.7,4.2-5.9C436.1,142.2,436.1,141.2,435.7,140.8z"></path>
															<path class="st22" d="M427.7,154.6c3.1-1.7,5.5-1.6,7.2-2.3s1.9-3.2,0.8-3.7s-8.1,0.7-9.9,1.6                 c-1.7,0.8-2.6,4.6-2.6,4.6L427.7,154.6z"></path>
															<path class="st25" d="M429.1,152.8c-1.7,0.5-2.4,0-2.4,0c0.1,0.7-0.5,1-1.3,1.9l2.4-0.1c3.1-1.7,5.5-1.6,7.2-2.3                 c0.8-0.4,1.2-1,1.4-1.7C435.5,152.2,430.8,152.3,429.1,152.8z"></path>
															<path class="st22" d="M420.6,157.5c1.7,2.3,9.7,1.3,11.3,1c1.6-0.4,2.6-1.3,2.4-2.4c-0.5-2-10.9-1.7-12-1.4                 C421.7,155.3,420.6,157.5,420.6,157.5z"></path>
															<path class="st25" d="M434.3,156.9c-1.1,1.1-3.7,1.7-6.7,1.9c-2.5,0.2-4,0.1-4.3,0.1c3,0.5,7.3-0.1,8.5-0.2                 C433.3,158.4,434.2,157.6,434.3,156.9z"></path>
														</g>
														<g>
															<path class="st23" d="M458.4,189.6c-17.1,8.8-20,8.3-27.3,12.3s-5.2,45.6-4.7,51.9s2.3,31.9,1.2,38.7                 c-0.8,7-4.7,32.5-6.5,36.4c-1.7,4-4.8,10.6,0.1,14.4c4.9,4,15.5,6.7,38.2,5.2c23-1.6,47.6-15.5,48.6-17.5                 c1.1-1.9-10.8-38.2-11.4-45c-0.5-7-1.9-12.1-2.6-15.4c-0.8-3.1,6.6-18.4,7.7-27.9c1.1-9.7,11.7-36.2,9.7-41                 c-1.9-4.8-20.2-10.3-32.5-16.5C466.5,179.3,458.4,189.6,458.4,189.6z"></path>
															<path class="st24" d="M441.4,200.3c2.8,9.3,8.5,17.5,16.2,23.6c9.3-2.3,18.6-6.4,26.2-12.1                 c-8.5,6.3-17.7,11.5-27.6,15.1C447.9,219.9,442.9,211,441.4,200.3z"></path>
															<path class="st22" d="M444.9,195.9c3.2-1.4,7.5-3.5,13.6-6.4c0,0,8.2-10.1,20.6-4c4.3,2.3,9.3,4.2,14.1,6.1                 c-7.3,12.5-19.4,22.4-33.3,26.9C452.4,213,447.1,204.7,444.9,195.9z"></path>
															<path class="st24" d="M508.1,331.2c1.1-1.9-10.8-38.2-11.4-45c-0.5-7-1.9-12.1-2.6-15.4c-0.8-3.1,6.6-18.4,7.7-27.9                 c0.2-1.7,0.7-3.8,1.3-6.4l-7.7-5.8c-4.6,12.6-7.3,34.7-11.7,40.1c-4.3,5.5-15,7.7-15,7.7s10.6,2.4,15.3,1.6                 c0,0,4.8,19.5,4.9,29c0.1,9.7-0.8,24.2-0.8,26.1c0,0.8,0.1,3.2,0.5,6.1C499.2,337.3,507.5,332.2,508.1,331.2z"></path>
															<path class="st22" d="M477,168c0.2,10.3,0.8,17.4,3.1,19.4c0,0-4,17.1-19.5,15.6c-5.4-0.5-4.7-9.4-2.3-13.6                 l-1.6-12.6L477,168z"></path>
															<path class="st25" d="M478.8,185.5L478.8,185.5c-1.3-3.1-1.7-9.3-1.9-17.4l-20.2,8.9l1,8.1l0,0                 C461.4,186.4,478.8,185.5,478.8,185.5z"></path>
														</g>
														<g>
															<path class="st22" d="M532.4,251.1c3.5,4.7,8.2,16.6,6.4,22c-1.7,5.5-19.6,29.7-28,38.6                 c-8.2,8.9-10.1,10.6-11.5,13.6s-8.5,15.3-10.3,17.1c-1.9,1.9-5.2,2-5.2,2s-2.4,2.6-7.2,2.3c0,0-4.1,2.8-7.3,3.6                 c0,0-1.1,2-2.3,2.3c-1.1,0.2-2.5-2-0.5-6.5c2.2-4.4,5.4-6.3,5.8-9c0.4-2.8,3.1-8.7,3.1-8.7s-5.8,5.8-9.3,6.3                 s-4.1-1.7-2-3.5c1.9-1.7,4.6-4.3,7-7.7c2.4-3.5,5.3-5.5,9.7-6.1c4.6-0.7,7.7-1.1,8.9-1.9c1.1-0.8,7.1-9.3,11.1-18.4                 c4.1-8.9,7.7-20.6,17.9-30.8l-4.6-7.9L532.4,251.1z"></path>
															<path class="st25" d="M469.5,349.6c0.8-2.5,2.4-4.6,4.2-6.6l0.7-0.7c0.2-0.2,0.5-0.5,0.7-0.7c0.5-0.5,0.7-1,1-1.6                 c0.7-1.1,1.3-2.3,1.9-3.2c-0.5,1.3-0.8,2.5-1.3,3.7c-0.4,0.7-0.5,1.2-0.8,1.7s-0.5,0.5-0.8,0.8l-0.7,0.7                 c-0.8,0.8-1.7,1.9-2.5,2.8C470.9,347.5,470.1,348.6,469.5,349.6z"></path>
															<path class="st25" d="M476.8,345.8c0.7-1.3,1.6-2.4,2.3-3.7c0.8-1.2,1.4-2.4,2-3.7c0.1,1.6-0.5,3-1.2,4.3                 C479.2,343.9,478.2,345,476.8,345.8z"></path>
															<path class="st25" d="M480.4,346.2c2.3-0.7,3.5-1.9,3.5-1.9s3.2-0.4,5.2-2c0.8-0.8,2.4-3.2,4.1-6.1                 c0,0-2,2.3-3.6,4.1c-2,2.6-5,1.7-5,1.7l0.5-2.4C484.9,339.6,482.8,345.1,480.4,346.2z"></path>
															<path class="st25" d="M538.7,267.1c-0.1,2.3-0.1,4.1-3.5,10c-3.7,6.7-26.3,34.7-31.1,39.8c-4.9,5.2-4.7,5.5-7.7,13.7                 c1.3-2.4,2.4-4.3,2.8-5.4c1.4-3,3.2-4.3,11.5-13.6c8.2-8.9,26.1-33.3,28-38.6C539.2,271.7,539.2,269.5,538.7,267.1z"></path>
															<path class="st25" d="M521.2,260.7l1.9,3.1c0,0-2.4,0.7-4.3,2.5l-3.6-6.1L521.2,260.7z"></path>
															<path class="st23" d="M499.4,244c-4.7-9.3-6.6-24.3-2.4-32.2s12.3-10.8,14.1-9.9c1.9,1,7.3,13.2,12.3,19                 s18.6,21.8,19.1,23.1s-9.9,12.1-29.2,20.2C511.2,265,499.4,244,499.4,244z"></path>
															<path class="st24" d="M513.9,251.1l3.1,6.4c0,0-15.3-15.4-21.6-26.7c0.8,4.7,2.3,9.4,4.1,13.2                 c0,0,11.8,21.2,14.1,20.2c3.2-1.4,6.4-2.8,9-4.3L513.9,251.1z"></path>
														</g>
														<g>
															<path class="st28" d="M455.6,168.8c1-4.2,1-8.7,1.3-13c0.2-3.2,0.5-6.1,3.2-8.2c2.3-1.4,4.8-1.7,7.3-1.4                 c7,0.8,8.2,7.5,7.8,13.8c-0.5,4.7-2.3,9.4-4.1,13.8c2.5-0.1,5.8-1.4,7.3-3.5c-0.7,2.6-1.9,5.3-4,7.2                 c7.2-0.1,13.9-4.8,17.8-11.2c3.8-6.4,5-14.1,4.7-21.6c-0.5-8.9-3.2-17.8-8.8-24.6c-11.1-13.8-32.3-15.4-45.3-3.6                 c-4.6,4.1-7.7,9.6-9.3,15.5c-2.3,7.8-2,16.1-0.5,23.9c0.7,3.2,1,6.1,1.3,9.4c0.1,1,1.3,12.7,0.7,12.7                 c4.6,0.4,9.9-0.7,13-4.1c-1.4,2.4-2.6,4.7-4,7.1C449.9,180.2,454.1,174.9,455.6,168.8z"></path>
															<path class="st22" d="M479.4,153c2-1.2,4.6-1.9,6.4,0.1c2.8,2.8-1.2,16-7.2,12.9c0,0-8.8,12.1-15.1,15.6                 c-6.4,3.5-10.9,1.7-13.3-0.8c-2.4-2.4-10.6-12.5-12.1-23.4c-0.5-3.8,0-11.3-0.1-13c-0.5-4.9-2.3-8.9,1.7-12.9                 s9.4-6.3,14.9-6.5c7-0.4,13.9,2.8,18.5,8.2C478.2,139.1,479.1,145.7,479.4,153z"></path>
															<path class="st25" d="M484.8,156.6c-0.5-2.4-2.6-2.8-4.1-1.2c-1.6,1.7-1.9,7.2-1.4,7.9s3.1,0.8,3.7-0.8                 c0.5-1.7-1-2.6-2.6-2.3c0,0-0.5-2.4,0.8-4.1c1.3-1.7,2.5-0.8,2.8-0.5C484.3,156.1,484.8,156.6,484.8,156.6z"></path>
															<g>
																<path class="st28" d="M468.2,145.9c-0.5-0.5-1.2-1-1.9-1.6c-0.7-0.5-1.3-0.8-2-1.2c-0.8-0.5-1.6-0.8-2.4-0.8                  c-0.8-0.1-1.6,0-2.4,0.4v0.1c0.5,0.2,0.8,0.4,1.1,0.5l1.1,0.4c0.8,0.2,1.4,0.4,2.3,0.5c0.8,0.4,1.4,0.5,2,0.8                  C466.6,145.2,467.3,145.7,468.2,145.9L468.2,145.9z"></path>
																<path class="st28" d="M440.8,143.2c0.7-0.5,1.4-0.5,2-0.8c0.8-0.2,1.6-0.4,2.3-0.4s1.6,0.1,2.3,0.1                  c0.8,0,1.6,0,2.4-0.1l0,0c-0.7-0.5-1.6-0.8-2.3-0.8c-0.8-0.2-1.6,0-2.4,0.1s-1.6,0.4-2.3,0.7                  C442.1,142.2,441.3,142.4,440.8,143.2L440.8,143.2z"></path>
																<path class="st28" d="M460.8,150.3c0-1,0.5-1.9,1.2-1.7c0.8,0.1,1.1,0.8,1,1.9c0,1-0.5,1.9-1.2,1.7                  C461.2,152.2,460.7,151.2,460.8,150.3z"></path>
																<path class="st28" d="M444.4,148.9c0-1,0.5-1.9,0.8-1.7c0.5,0.1,0.8,0.8,0.8,1.9c0,1-0.5,1.9-0.8,1.7                  C444.7,150.7,444.4,149.9,444.4,148.9z"></path>
																<path class="st25" d="M455.6,160.2c-1.4,1-3.6,0.8-5-0.1c0.2,0.8,0.5,1.6,1.3,1.9c0.8,0.4,1.7,0.2,2.4-0.1                  C455,161.8,455.2,161,455.6,160.2z"></path>
																<g>
																	<path class="st29" d="M461.4,166.5c-3.5,0.1-11.8-0.5-14.4-0.8c1,3.5,3.8,7,7.8,7                   C458.2,172.5,460.5,169.6,461.4,166.5z"></path>
																	<path class="st30" d="M458.2,171.4c-1.4-0.5-2.6-0.2-3.2,0c0,0-1.7-1.3-4.6-0.5c1.2,0.8,2.6,1.6,4.3,1.6                   C456,172.5,457.1,171.9,458.2,171.4z"></path>
																	<path class="st12" d="M449.3,168.4c3.5,1.1,7.3,0.8,10.6-0.5c0-0.5,0.1-1,0.1-1.6c-3.5-0.1-8.9-0.5-11.8-0.8                   C448.3,166.7,448.7,167.6,449.3,168.4z"></path>
																</g>
															</g>
															<path class="st28" d="M476,141.6c-5.6-0.4-11.1-1.6-16.3-3.7c-1-2.3-1-4.3-1.1-6.7c-1.4,2.6-2.3,5.5-2.4,8.5                 c-3.2-0.2-6.6-0.5-9.9-0.5c-0.8-2.6-1-5.3-0.8-7.9c-1.1,2.5-1.7,5.8-2,8.7c-1.9-0.7-4.6,0.4-6.6,0.7                 c-2.5-5.8-2.4-16,3-20.3c5.3-4.2,14.4-5.4,20.7-4.3c13.7,1.9,24.5,13.2,23.6,27.4c-0.5,8.1-4.6,15.6-10.3,21.4                 C477.2,157.3,478,148.9,476,141.6z"></path>
														</g>
													</g>
												</g>
											</g>
										</g>
									</g>
								</g>
							</g>
						</g>
					</g>
				</g>
			</g>
		</g>
	</g>
	<g>
		<circle class="st31" cx="307.3" cy="94.6" r="19.5"></circle>
		<path class="st32" d="M297.2,93.9h3.7c0-1.3,0.1-2.5,0.5-3.7h-3.1C297.6,91.5,297.4,92.7,297.2,93.9z M298.9,88.8h2.6    c0.2-0.8,0.5-1.3,1-2.4c0.2-0.5,0.5-1,0.8-1.3C301.7,86.1,300.3,87.3,298.9,88.8z M307.3,83.1c-3,0-5.9,1.1-8.2,3.5    c-2.3,2.3-3.5,5.2-3.5,8.2s1.1,5.9,3.5,8.2c2.3,2.3,5.2,3.5,8.2,3.5s5.9-1.1,8.2-3.5c2.3-2.4,3.5-5.2,3.5-8.2s-1.1-5.9-3.5-8.2    C313.4,84.1,310.3,83.1,307.3,83.1L307.3,83.1z M306.5,84.6c-1,0.2-1.9,1.1-2.6,2.6c-0.2,0.5-0.5,1-0.8,1.6h3.5L306.5,84.6    L306.5,84.6z M306.5,90.3h-3.7c-0.2,1.1-0.5,2.4-0.5,3.7h4.3L306.5,90.3L306.5,90.3z M308.1,93.9v-3.7h3.7    c0.2,1.1,0.5,2.4,0.5,3.7H308.1z M306.5,95.3h-4.3c0,1.1,0.1,2.4,0.5,3.7h3.7L306.5,95.3L306.5,95.3z M308.1,99v-3.7h4.3    c0,1.1-0.1,2.4-0.5,3.7H308.1z M306.5,100.4H303c0.1,0.5,0.5,1,0.8,1.6c0.8,1.3,1.8,2.4,2.6,2.6L306.5,100.4L306.5,100.4z     M303.5,104.1c-0.4-0.5-0.6-0.8-0.8-1.3c-0.4-0.8-0.8-1.3-1-2.4h-2.6C300.3,102.1,301.7,103.4,303.5,104.1z M298.1,99h3.1    c-0.2-1.1-0.5-2.4-0.5-3.7h-3.5C297.4,96.8,297.6,98.1,298.1,99z M311.2,104.1c1.9-0.8,3.2-1.9,4.4-3.7H313    c-0.2,0.8-0.5,1.3-1,2.4C311.8,103.1,311.6,103.6,311.2,104.1z M311.6,100.4h-3.5v4.3c1-0.2,1.9-1.1,2.6-2.6    C311.2,101.6,311.2,101,311.6,100.4z M313.4,99h3.1c0.5-1.1,0.8-2.4,1-3.7h-3.7C313.8,96.6,313.6,98,313.4,99z M313.8,93.9h3.7    c-0.1-1.1-0.5-2.5-1-3.7h-3.1C313.6,91.5,313.8,92.7,313.8,93.9z M313,88.8c-0.2-0.8-0.5-1.3-1-2.4c-0.2-0.5-0.5-1-0.8-1.3    c1.9,0.8,3.2,1.9,4.4,3.7L313,88.8L313,88.8L313,88.8z M311.6,88.8h-3.5v-4.3c1,0.2,1.9,1.1,2.6,2.6    C311,87.9,311.2,88.3,311.6,88.8z"></path>
	</g>
</g>
</svg>
